<?xml version="1.0" standalone="no"?>
<!DOCTYPE svg PUBLIC "-//W3C//DTD SVG 20010904//EN"
 "http://www.w3.org/TR/2001/REC-SVG-20010904/DTD/svg10.dtd">
<svg version="1.0" xmlns="http://www.w3.org/2000/svg"
 width="714.000000pt" height="259.000000pt" viewBox="0 0 714.000000 259.000000"
 preserveAspectRatio="xMidYMid meet">

<g transform="translate(0.000000,259.000000) scale(0.100000,-0.100000)"
fill="#000000" stroke="none">
<path d="M0 1295 l0 -1295 225 0 224 0 30 98 c41 133 58 206 81 351 11 73 28
140 41 165 70 136 185 319 232 371 29 33 73 89 97 125 77 115 161 210 184 210
22 0 56 -20 88 -52 20 -20 24 -78 7 -110 -6 -11 -7 -18 -2 -15 4 3 46 27 93
55 157 93 222 137 206 140 -27 6 -17 18 13 16 23 -1 28 2 24 16 -3 10 -16 23
-30 29 -37 17 -28 55 15 59 18 2 32 -1 32 -7 0 -6 -10 -10 -22 -8 -29 3 -37
-28 -9 -36 12 -3 24 -15 29 -26 8 -21 8 -21 42 5 58 43 110 66 135 60 13 -3
38 -18 55 -33 29 -24 32 -31 27 -66 -3 -21 -16 -50 -29 -64 l-23 -25 50 20
c123 49 138 56 127 60 -8 2 -12 26 -12 63 l0 59 39 0 c45 0 64 -18 64 -59 l0
-29 31 19 c46 28 107 25 140 -7 24 -25 30 -37 27 -56 0 -5 3 -8 7 -8 15 0 12
-63 -5 -110 -17 -49 -73 -99 -153 -138 -26 -12 -83 -60 -133 -112 -49 -49 -92
-90 -98 -90 -17 0 -57 -78 -64 -126 -11 -73 -42 -167 -91 -277 -48 -105 -51
-123 -30 -152 12 -17 17 -17 46 -5 17 7 42 29 54 49 27 44 116 249 152 351 39
111 65 151 180 268 57 59 104 110 104 115 0 16 83 97 124 121 24 14 58 42 76
63 47 53 101 92 128 93 35 0 80 -27 96 -59 56 -107 17 -227 -188 -581 -33 -58
-78 -148 -99 -200 -21 -52 -56 -131 -78 -175 -54 -106 -77 -164 -83 -211 -3
-22 -8 -63 -11 -91 l-7 -53 154 0 155 0 12 47 c16 66 19 78 21 81 2 1 3 5 5
10 3 11 16 42 45 108 32 72 103 149 145 160 17 4 47 22 68 40 36 30 83 48 99
37 12 -7 9 -246 -3 -323 -7 -37 -8 -89 -5 -114 l7 -46 421 0 421 0 -5 102 c-4
77 -16 143 -47 261 -24 87 -40 165 -37 173 7 18 50 18 141 1 131 -26 196 -67
263 -167 36 -53 100 -195 146 -323 l18 -47 154 0 c85 0 154 3 154 8 0 25 -32
182 -42 207 -7 17 -56 111 -110 210 -54 99 -98 186 -98 194 0 21 -101 188
-145 238 -20 24 -42 40 -49 37 -8 -3 -16 4 -19 16 -4 17 -3 19 9 9 24 -20 15
-5 -14 22 l-27 26 3 -38 c3 -25 0 -39 -8 -39 -8 0 -11 17 -9 50 2 34 -2 55
-13 67 -35 40 -88 134 -99 176 -10 35 -9 56 2 106 12 57 17 65 55 87 22 13 51
24 63 24 34 0 81 -27 136 -79 27 -25 44 -39 37 -32 -22 26 -15 89 13 114 68
61 67 60 76 46 7 -11 12 -12 29 -1 27 16 49 17 32 0 -9 -9 1 -17 45 -34 288
-110 473 -192 542 -242 21 -15 77 -43 125 -62 51 -20 108 -52 135 -74 l46 -39
-40 42 c-29 29 -68 53 -135 82 -52 23 -115 56 -140 74 -25 18 -92 51 -150 74
-58 23 -108 45 -112 49 -4 4 -4 27 0 51 6 36 14 48 45 68 20 13 37 19 37 14 0
-5 12 -12 28 -16 15 -3 70 -28 122 -54 52 -27 133 -63 180 -82 47 -18 96 -39
109 -46 14 -6 29 -9 35 -6 6 3 8 3 4 -2 -7 -7 60 -49 192 -121 14 -8 32 -14
40 -13 8 0 4 5 -10 10 -67 27 -200 112 -200 128 0 10 7 41 15 69 15 49 36 72
68 72 23 0 105 -78 147 -140 22 -32 43 -60 47 -62 5 -1 17 -14 28 -28 11 -14
63 -66 115 -115 157 -148 293 -361 325 -510 33 -154 103 -402 114 -410 5 -2
19 -32 31 -65 l22 -60 509 0 509 0 0 1295 0 1295 -3570 0 -3570 0 0 -1295z
m2112 1057 c-17 -5 -15 -23 4 -37 15 -10 15 -13 0 -28 -9 -9 -24 -13 -32 -10
-13 5 -13 7 -2 14 11 7 11 12 0 29 -16 26 0 52 26 43 10 -4 12 -8 4 -11z
m1834 3 c9 -8 11 -15 5 -15 -6 0 -8 -6 -5 -14 4 -9 -3 -13 -21 -13 -17 0 -25
4 -21 13 3 7 0 15 -7 18 -7 2 -4 5 6 5 10 1 15 6 12 11 -10 16 15 12 31 -5z
m-3219 -42 c-3 -10 -5 -2 -5 17 0 19 2 27 5 18 2 -10 2 -26 0 -35z m497 31
c18 -18 18 -17 10 -38 -4 -10 -18 -16 -41 -16 -27 0 -34 4 -31 18 5 24 45 28
52 5 3 -11 4 -9 3 7 -3 37 -52 41 -68 6 -15 -31 0 -53 39 -59 26 -4 26 -4 -3
-6 -36 -1 -55 14 -55 45 0 29 25 54 55 54 13 0 31 -7 39 -16z m417 -1 c1 -17
2 -17 6 0 2 9 8 17 13 17 13 0 18 -38 7 -49 -8 -8 -7 -11 2 -11 8 0 7 -5 -4
-17 -13 -13 -19 -13 -25 -3 -6 10 -9 10 -13 -1 -5 -12 -7 -11 -16 1 -7 10 -6
17 2 22 9 6 8 10 -3 18 -10 6 -11 10 -2 10 6 0 12 7 12 15 0 21 20 19 21 -2z
m899 9 c0 -5 -7 -9 -15 -9 -8 0 -15 4 -15 9 0 4 7 8 15 8 8 0 15 -4 15 -8z
m475 -2 c3 -5 1 -10 -4 -10 -6 0 -11 5 -11 10 0 6 2 10 4 10 3 0 8 -4 11 -10z
m462 -6 c3 -9 0 -20 -7 -24 -15 -9 4 -24 23 -17 7 3 13 -3 13 -12 0 -23 -64
-27 -73 -4 -4 9 -2 18 4 20 5 2 8 15 5 28 -3 18 0 25 12 25 9 0 19 -7 23 -16z
m910 -13 c-8 -22 -8 -36 1 -56 10 -21 10 -26 0 -23 -23 8 -22 108 1 108 5 0 4
-13 -2 -29z m464 2 c11 -30 0 -75 -22 -81 -11 -4 -12 -2 -1 9 15 16 16 53 2
80 -8 13 -7 19 0 19 6 0 15 -12 21 -27z m927 -14 c15 -1 15 -2 0 -6 -10 -2
-19 -12 -19 -21 -1 -15 -2 -15 -6 1 -2 9 -12 18 -21 18 -15 1 -15 2 1 6 9 2
18 12 18 21 1 15 2 15 6 0 2 -10 12 -19 21 -19z m-3180 -21 c-2 -12 -9 -23
-16 -24 -7 -1 -8 0 -2 3 13 6 13 43 0 43 -5 0 -10 -8 -11 -17 0 -12 -2 -13 -6
-5 -4 10 -9 9 -20 -5 -8 -10 -12 -12 -8 -5 4 7 0 12 -9 12 -9 0 -16 5 -16 10
0 6 3 9 8 9 26 -4 52 2 46 12 -4 7 1 7 15 -1 14 -7 21 -19 19 -32z m-2298 20
c0 -11 -32 -10 -50 2 -11 7 -6 9 17 7 18 -1 33 -5 33 -9z m435 -38 c3 -5 1
-10 -4 -10 -6 0 -11 5 -11 10 0 6 2 10 4 10 3 0 8 -4 11 -10z m4583 -27 c-10
-2 -26 -2 -35 0 -10 3 -2 5 17 5 19 0 27 -2 18 -5z m949 -13 c-3 -10 0 -21 6
-23 20 -6 -2 -37 -28 -37 -23 0 -25 4 -25 40 0 36 2 40 26 40 21 0 25 -4 21
-20z m167 -12 c4 6 12 12 18 12 7 0 6 -6 -2 -15 -10 -12 -10 -18 0 -30 8 -9 8
-15 2 -15 -6 0 -13 6 -15 13 -4 9 -8 8 -16 -3 -8 -11 -10 -4 -10 30 1 35 3 39
8 20 5 -17 9 -21 15 -12z m-96 -20 c3 -24 0 -28 -22 -28 -33 0 -35 29 -3 38
22 6 22 6 -3 13 l-25 8 25 -2 c19 -2 26 -8 28 -29z m50 25 c-10 -2 -18 -13
-18 -23 0 -10 8 -21 18 -23 12 -4 11 -5 -6 -6 -24 -1 -38 20 -28 44 3 8 16 14
28 14 17 -1 18 -2 6 -6z m107 -3 c-18 -7 -19 -8 -2 -15 25 -10 21 -35 -5 -34
-22 0 -22 1 -3 9 18 7 19 8 3 15 -26 10 -22 35 5 34 21 0 21 -1 2 -9z m83 -18
c3 -17 -2 -25 -17 -29 -11 -3 -22 -12 -24 -22 -3 -9 -5 6 -6 32 -1 45 1 48 22
45 14 -2 23 -11 25 -26z m62 -3 c0 -26 -3 -30 -22 -27 -30 4 -35 28 -7 35 22
6 22 7 3 14 -18 7 -17 8 4 8 18 1 22 -4 22 -30z m48 24 c-10 -2 -18 -13 -18
-23 0 -10 8 -21 18 -23 13 -4 12 -5 -4 -6 -12 0 -24 6 -28 14 -9 24 4 45 28
44 16 -1 17 -2 4 -6z m72 -7 c0 -8 -10 -16 -22 -19 -23 -4 -23 -4 2 -15 25
-11 25 -11 2 -11 -24 -1 -38 20 -28 44 7 19 46 20 46 1z m-6485 -36 c3 -5 2
-10 -4 -10 -5 0 -13 5 -16 10 -3 6 -2 10 4 10 5 0 13 -4 16 -10z m465 -45 c0
-25 -4 -45 -10 -45 -5 0 -10 16 -10 36 0 25 -3 33 -12 28 -9 -5 -9 -2 1 9 22
28 31 20 31 -28z m467 29 c3 -8 -4 -25 -17 -39 l-22 -23 24 -5 c17 -3 14 -5
-11 -6 l-34 -1 21 23 c29 30 30 61 2 54 -11 -3 -18 -1 -14 4 9 15 44 10 51 -7z
m458 -11 c0 -12 4 -25 8 -29 13 -14 -16 -34 -47 -33 -30 2 -30 2 -3 6 30 5 38
33 10 33 -17 1 -17 1 0 11 23 14 22 33 -3 26 -11 -3 -20 -1 -20 5 0 5 12 8 28
6 20 -2 27 -9 27 -25z m457 -8 c2 -19 0 -41 -4 -48 -6 -9 -8 -9 -8 1 0 6 -12
12 -26 12 -14 0 -23 4 -20 9 3 5 15 7 26 4 16 -4 20 0 20 17 0 20 -2 21 -17 9
-15 -13 -15 -12 -2 9 19 31 26 28 31 -13z m441 28 c-29 -5 -30 -19 -2 -26 29
-8 23 -51 -9 -53 -18 -1 -19 -1 -2 3 27 6 27 43 0 43 -13 0 -20 7 -20 20 0 15
6 20 28 19 23 -2 24 -2 5 -6z m467 3 c0 -2 -9 -6 -20 -9 -11 -3 -18 -1 -14 4
5 9 34 13 34 5z m463 -12 c-3 -9 -9 -11 -12 -6 -3 5 -15 12 -26 15 -13 3 -9 5
12 6 26 1 31 -2 26 -15z m462 -29 c0 -38 -2 -40 -30 -40 -27 0 -30 3 -31 35
-1 46 3 52 34 48 24 -3 27 -7 27 -43z m453 6 c4 -34 -9 -51 -38 -50 -8 0 -4 5
10 11 l25 11 -23 5 c-43 7 -42 66 0 60 18 -2 24 -11 26 -37z m457 -6 c0 -36
-2 -40 -25 -40 -20 0 -26 6 -28 28 -5 42 5 59 30 55 20 -3 23 -9 23 -43z m913
18 c-10 -2 -28 -2 -40 0 -13 2 -5 4 17 4 22 1 32 -1 23 -4z m-2740 -31 c4 -27
-22 -40 -43 -22 -8 7 -15 21 -15 32 0 30 54 21 58 -10z m442 10 c0 -5 -7 -17
-15 -28 -14 -18 -14 -17 -4 9 12 27 19 34 19 19z m1827 -8 c-3 -3 -12 -4 -19
-1 -8 3 -5 6 6 6 11 1 17 -2 13 -5z m471 -1 c-10 -2 -28 -2 -40 0 -13 2 -5 4
17 4 22 1 32 -1 23 -4z m-4778 -246 c14 -25 13 -30 -3 -58 -13 -24 -15 -35 -6
-45 9 -11 8 -14 -4 -14 -8 0 -17 7 -21 15 -3 8 -12 15 -20 15 -24 0 -46 29
-46 60 0 62 70 81 100 27z m365 -14 l8 -38 14 43 c8 23 18 42 22 42 4 0 14
-19 21 -42 l14 -43 9 43 c6 23 14 42 18 42 12 0 11 -5 -4 -64 -16 -60 -33 -69
-42 -24 -11 52 -18 55 -29 13 -6 -21 -16 -40 -22 -42 -9 -3 -34 77 -34 108 0
24 18 -4 25 -38z m540 37 c-3 -5 -15 -10 -26 -10 -10 0 -19 -4 -19 -10 0 -5 9
-10 19 -10 11 0 23 -4 26 -10 4 -6 -5 -10 -19 -10 -19 0 -26 -5 -26 -20 0 -13
7 -20 19 -20 11 0 23 -4 26 -10 4 -6 -10 -10 -34 -10 l-41 0 0 60 0 60 41 0
c24 0 38 -4 34 -10z m453 -19 c2 -13 -2 -27 -8 -31 -9 -6 -8 -14 5 -34 10 -14
13 -26 8 -26 -5 0 -15 11 -21 25 -15 33 -40 32 -45 -2 -2 -16 -5 0 -6 35 l-1
63 33 -3 c25 -2 33 -8 35 -27z m450 22 c-14 -4 -18 -16 -20 -61 l-1 -57 -6 54
c-5 42 -11 56 -26 62 -14 5 -6 7 25 7 25 0 37 -2 28 -5z m427 -37 c4 -8 6 -8
10 0 3 6 13 20 21 30 14 18 14 17 3 -6 -7 -14 -18 -43 -25 -65 -12 -38 -13
-39 -14 -10 0 17 -7 41 -15 55 -19 32 -19 51 0 26 8 -10 17 -24 20 -30z m435
-6 c0 -87 56 -79 63 8 l3 47 2 -50 c1 -29 -3 -56 -10 -63 -18 -18 -56 -14 -68
7 -13 25 -13 101 0 101 6 0 10 -23 10 -50z m490 -10 c0 -33 -4 -60 -10 -60 -6
0 -10 27 -10 60 0 33 4 60 10 60 6 0 10 -27 10 -60z m498 28 c11 -23 11 -33 0
-55 -15 -31 -59 -43 -84 -22 -17 14 -19 80 -2 97 22 22 71 10 86 -20z m436 26
c32 -12 11 -64 -26 -64 -13 0 -18 -8 -18 -25 0 -14 -4 -25 -10 -25 -6 0 -10
27 -10 60 0 57 1 60 24 60 13 0 31 -3 40 -6z m1356 -69 c0 -37 -4 -65 -10 -65
-6 0 -10 28 -10 65 0 37 4 65 10 65 6 0 10 -28 10 -65z m-907 35 c-3 -11 -9
-23 -14 -25 -4 -3 -1 -17 6 -32 15 -29 13 -39 -4 -28 -6 3 -11 15 -11 26 0 10
-6 19 -12 20 -10 0 -10 2 0 6 6 2 12 13 12 22 0 19 8 31 21 31 4 0 5 -9 2 -20z
m446 -6 c2 -10 8 -22 15 -26 8 -6 7 -8 -1 -8 -7 0 -13 -9 -13 -19 0 -11 -5
-23 -11 -26 -17 -11 -19 -1 -4 28 7 15 10 29 6 32 -14 8 -21 47 -8 42 7 -2 14
-12 16 -23z m-5671 -81 c-13 -3 -19 -16 -20 -41 l-1 -37 -4 37 c-3 24 -10 38
-21 41 -9 3 1 5 23 5 22 0 32 -2 23 -5z m112 -13 c10 0 20 -7 24 -15 9 -25 -4
-45 -30 -45 -22 0 -24 4 -23 43 0 23 3 36 6 30 2 -7 13 -13 23 -13z m-50 -31
c0 -26 -3 -30 -22 -27 -30 4 -35 28 -7 35 22 6 22 7 3 14 -18 7 -17 8 4 8 18
1 22 -4 22 -30z m5163 -26 c-8 -3 -13 -23 -13 -48 0 -25 5 -45 13 -48 6 -3 2
-6 -10 -6 -21 -1 -23 3 -23 54 0 51 2 55 23 54 12 0 16 -3 10 -6z m457 -48 c0
-51 -2 -55 -22 -54 -13 0 -17 3 -10 6 7 3 12 23 12 48 0 25 -5 45 -12 48 -7 3
-3 6 10 6 20 1 22 -3 22 -54z m454 3 c8 -21 11 -38 7 -38 -8 0 -41 71 -41 87
0 14 19 -13 34 -49z m-5358 -278 c12 -33 18 -60 13 -60 -4 0 -11 9 -14 20 -7
24 -55 28 -55 6 0 -8 -5 -18 -11 -22 -9 -5 -10 1 -5 21 11 45 34 95 43 95 4 0
17 -27 29 -60z m1362 53 c-22 -3 -28 -10 -28 -29 0 -18 6 -24 23 -25 l22 -2
-22 -4 c-16 -3 -23 -11 -23 -29 0 -13 -4 -24 -10 -24 -6 0 -10 27 -10 60 l0
60 38 -1 c30 -2 32 -3 10 -6z m482 -2 c0 -4 -11 -6 -23 -4 -27 5 -57 -19 -57
-47 0 -24 26 -50 51 -50 24 0 26 37 2 43 -14 4 -12 5 5 6 18 1 22 -4 22 -29 0
-27 -3 -30 -29 -30 -55 0 -81 61 -44 102 16 18 73 26 73 9z m411 -41 c24 0 29
4 29 25 0 14 5 25 10 25 6 0 10 -27 10 -60 0 -33 -4 -60 -10 -60 -5 0 -10 14
-10 30 0 27 -3 30 -29 30 -26 0 -30 -4 -34 -32 -2 -18 -4 -4 -4 32 0 36 2 53
4 38 4 -23 9 -28 34 -28z m469 -14 c0 -45 -5 -67 -15 -76 -9 -7 -18 -10 -22
-6 -3 3 -1 6 5 6 8 0 12 23 12 70 0 40 4 70 10 70 6 0 10 -28 10 -64z m1840
27 c0 -15 -2 -16 -10 -3 -6 10 -10 11 -10 3 0 -7 -4 -13 -10 -13 -5 0 -10 7
-10 15 0 8 9 15 20 15 12 0 20 -7 20 -17z m-470 -13 c0 -5 -4 -10 -10 -10 -5
0 -10 5 -10 10 0 6 5 10 10 10 6 0 10 -4 10 -10z m0 -50 c0 -5 -4 -10 -10 -10
-5 0 -10 5 -10 10 0 6 5 10 10 10 6 0 10 -4 10 -10z m-4877 -27 c-40 -8 -40
-62 1 -64 17 -1 18 -2 3 -6 -10 -3 -24 1 -32 7 -30 25 -10 71 30 69 19 -2 19
-2 -2 -6z m267 -27 c0 -24 5 -36 18 -39 10 -3 6 -5 -10 -6 -26 -1 -28 2 -28
39 0 22 5 40 10 40 6 0 10 -15 10 -34z m203 -23 c11 -13 15 -23 9 -23 -6 0
-14 5 -18 11 -4 8 -9 7 -15 -2 -6 -9 -8 2 -8 31 1 25 3 36 6 25 3 -11 14 -30
26 -42z m5360 50 c-27 -5 -31 -22 -5 -24 16 -1 16 -2 0 -6 -26 -6 -22 -31 5
-36 19 -4 18 -4 -5 -6 -26 -1 -28 2 -28 39 0 37 2 40 28 39 23 -2 24 -2 5 -6z
m119 -21 c-16 -5 -15 -39 1 -45 7 -4 6 -6 -4 -6 -11 -1 -18 9 -21 29 -5 35 -2
41 20 32 10 -4 12 -7 4 -10z m-5872 -23 c0 -26 -3 -30 -22 -27 -30 4 -35 28
-7 35 22 6 22 7 3 14 -18 7 -17 8 4 8 18 1 22 -4 22 -30z m74 16 c8 -22 -4
-45 -24 -45 -10 0 -21 -8 -23 -17 -3 -10 -5 3 -6 30 -1 43 1 47 23 47 13 0 26
-7 30 -15z m41 6 c-18 -7 -18 -8 -1 -18 23 -13 12 -33 -17 -32 -20 1 -20 2 3
8 l25 7 -23 13 c-26 14 -20 31 11 30 21 0 21 -1 2 -8z m169 -6 c8 -23 -4 -45
-25 -45 -22 0 -34 22 -25 45 3 8 14 15 25 15 10 0 21 -7 25 -15z m49 5 c-13
-5 -23 -14 -23 -20 0 -6 10 -15 23 -20 l22 -9 -23 0 c-24 -1 -38 20 -28 44 3
8 16 15 28 14 l23 0 -22 -9z m5496 -22 c-2 -31 -2 -31 -6 -5 -2 15 -10 27 -18
27 -8 0 -16 -12 -18 -27 -4 -26 -4 -26 -6 5 -1 28 2 32 24 32 22 0 25 -4 24
-32z m109 15 c2 -8 -5 -13 -17 -13 -28 0 -27 -17 2 -23 20 -4 19 -4 -4 -6 -29
-1 -43 18 -32 45 6 17 44 15 51 -3z m45 10 c-7 -2 -13 -16 -13 -29 0 -13 -4
-24 -10 -24 -5 0 -10 14 -10 30 0 25 4 30 23 29 12 0 16 -3 10 -6z m-723 -58
c0 -8 -4 -15 -10 -15 -5 0 -10 7 -10 15 0 8 5 15 10 15 6 0 10 -7 10 -15z
m-3000 -291 c14 -50 21 -48 40 9 7 21 14 36 17 34 6 -7 -29 -117 -38 -117 -4
0 -16 27 -27 60 -12 33 -17 60 -13 60 5 0 14 -20 21 -46z m506 16 c1 -14 5
-33 9 -43 10 -24 -12 -47 -46 -47 -29 0 -29 1 -29 61 l0 60 33 -3 c26 -2 32
-7 33 -28z m426 -22 l23 -41 6 49 6 49 1 -63 c2 -71 -5 -72 -40 -10 l-23 41
-6 -49 -6 -49 -1 63 c-2 71 5 72 40 10z m-3279 -75 c-29 -5 -30 -20 -2 -28 27
-9 21 -40 -9 -41 -19 -1 -19 -1 -2 3 25 6 25 11 -2 32 -25 21 -17 42 15 40 22
-2 22 -2 0 -6z m70 -16 c11 -4 17 -16 16 -34 -1 -27 -1 -27 -8 -4 -9 35 -29
37 -34 4 -3 -19 -4 -13 -5 17 -1 25 2 40 6 34 4 -6 15 -13 25 -17z m106 14
c16 -10 21 -73 6 -68 -5 2 -11 13 -13 25 -5 31 -22 27 -23 -5 l-1 -28 -7 30
c-12 50 3 68 38 46z m5429 2 c-24 -6 -23 -20 2 -33 27 -14 15 -40 -19 -39 -23
2 -24 2 -3 6 28 6 28 17 0 35 -25 17 -17 39 15 37 17 -1 18 -2 5 -6z m63 -13
c15 0 19 -7 18 -32 -2 -31 -2 -31 -6 -5 -2 15 -10 27 -18 27 -8 0 -16 -12 -18
-27 -2 -17 -4 -11 -5 17 0 25 2 39 5 33 2 -7 13 -13 24 -13z m89 9 c-12 -9
-11 -10 6 -6 12 2 28 1 35 -4 10 -6 11 -9 2 -9 -7 0 -13 -9 -13 -19 0 -11 6
-22 13 -24 7 -3 5 -6 -5 -6 -13 -1 -18 7 -18 24 0 36 -30 33 -31 -2 l-1 -28
-7 30 c-9 38 -3 55 18 55 14 0 14 -2 1 -11z m-5643 -56 c-3 -10 -5 -2 -5 17 0
19 2 27 5 18 2 -10 2 -26 0 -35z m5600 0 c-3 -10 -5 -2 -5 17 0 19 2 27 5 18
2 -10 2 -26 0 -35z m-5704 -400 c-40 -8 -40 -62 1 -64 17 -1 18 -2 3 -6 -10
-3 -24 1 -32 7 -30 25 -10 71 30 69 19 -2 19 -2 -2 -6z m137 -33 c0 -22 -4
-40 -10 -40 -5 0 -10 18 -10 40 0 22 5 40 10 40 6 0 10 -18 10 -40z m6040 31
c-18 -5 -25 -14 -25 -31 0 -17 7 -26 25 -31 l25 -7 -27 -1 c-34 -1 -54 29 -38
59 7 13 20 20 38 19 l27 -1 -25 -7z m127 -53 c-2 -13 -4 -3 -4 22 0 25 2 35 4
23 2 -13 2 -33 0 -45z m-6245 34 c-16 -5 -15 -39 1 -45 7 -4 6 -6 -4 -6 -11
-1 -18 9 -21 29 -5 35 -2 41 20 32 10 -4 12 -7 4 -10z m6166 -3 c-10 -7 -11
-12 0 -29 10 -16 10 -20 -2 -20 -8 0 -16 13 -18 30 -5 35 -2 41 19 33 12 -5
12 -7 1 -14z m-6124 3 c-7 -4 -14 -18 -17 -32 -4 -21 -4 -20 -6 8 -1 24 3 32
17 32 11 0 13 -3 6 -8z m6174 -4 c-9 -7 -18 -22 -21 -33 -3 -13 -5 -8 -6 13
-1 27 3 32 21 32 19 0 20 -1 6 -12z"/>
<path d="M2100 2299 c0 -5 5 -7 10 -4 6 3 10 8 10 11 0 2 -4 4 -10 4 -5 0 -10
-5 -10 -11z"/>
<path d="M1170 2310 c0 -5 5 -10 10 -10 6 0 10 5 10 10 0 6 -4 10 -10 10 -5 0
-10 -4 -10 -10z"/>
<path d="M3450 2334 c0 -8 5 -12 10 -9 6 3 10 10 10 16 0 5 -4 9 -10 9 -5 0
-10 -7 -10 -16z"/>
<path d="M3445 2300 c-9 -15 -1 -23 21 -18 15 3 16 4 1 16 -11 9 -17 10 -22 2z"/>
<path d="M6230 2240 c0 -5 7 -10 15 -10 8 0 15 5 15 10 0 6 -7 10 -15 10 -8 0
-15 -4 -15 -10z"/>
<path d="M6230 2205 c0 -8 7 -15 15 -15 8 0 15 7 15 15 0 8 -7 15 -15 15 -8 0
-15 -7 -15 -15z"/>
<path d="M6300 2200 c0 -5 4 -10 9 -10 6 0 13 5 16 10 3 6 -1 10 -9 10 -9 0
-16 -4 -16 -10z"/>
<path d="M6540 2210 c0 -13 5 -20 13 -17 6 2 12 10 12 17 0 7 -6 15 -12 18 -8
2 -13 -5 -13 -18z"/>
<path d="M6610 2200 c0 -5 5 -10 10 -10 6 0 10 5 10 10 0 6 -4 10 -10 10 -5 0
-10 -4 -10 -10z"/>
<path d="M3915 2171 c-6 -11 9 -23 19 -14 9 9 7 23 -3 23 -6 0 -12 -4 -16 -9z"/>
<path d="M3916 2133 c-11 -11 -6 -23 9 -23 8 0 15 4 15 9 0 13 -16 22 -24 14z"/>
<path d="M4367 2165 c-8 -18 11 -31 25 -17 11 11 3 32 -12 32 -4 0 -10 -7 -13
-15z"/>
<path d="M4824 2166 c-9 -23 0 -51 16 -51 10 0 15 10 15 29 0 32 -21 47 -31
22z"/>
<path d="M2995 2140 c-8 -14 3 -30 21 -30 8 0 14 9 14 20 0 21 -24 28 -35 10z"/>
<path d="M932 1898 c-17 -17 -15 -63 4 -79 22 -18 48 0 52 35 6 45 -29 71 -56
44z"/>
<path d="M2300 1885 c0 -22 4 -26 23 -23 14 2 22 10 22 23 0 13 -8 21 -22 23
-19 3 -23 -1 -23 -23z"/>
<path d="M4591 1901 c-29 -19 -12 -90 21 -91 13 0 38 32 38 50 0 18 -25 50
-38 50 -4 0 -13 -4 -21 -9z"/>
<path d="M5050 1885 c0 -20 4 -26 18 -23 9 2 17 12 17 23 0 11 -8 21 -17 23
-14 3 -18 -3 -18 -23z"/>
<path d="M415 1760 c-7 -12 2 -30 16 -30 5 0 9 9 9 20 0 21 -15 27 -25 10z"/>
<path d="M350 1740 c0 -5 5 -10 10 -10 6 0 10 5 10 10 0 6 -4 10 -10 10 -5 0
-10 -4 -10 -10z"/>
<path d="M1056 1415 c-9 -23 -8 -25 9 -25 17 0 19 9 6 28 -7 11 -10 10 -15 -3z"/>
<path d="M360 1280 c0 -5 5 -10 10 -10 6 0 10 5 10 10 0 6 -4 10 -10 10 -5 0
-10 -4 -10 -10z"/>
<path d="M425 1300 c-7 -12 2 -30 16 -30 5 0 9 9 9 20 0 21 -15 27 -25 10z"/>
<path d="M635 1300 c-7 -12 2 -30 16 -30 5 0 9 9 9 20 0 21 -15 27 -25 10z"/>
<path d="M3100 980 c0 -16 5 -21 23 -18 12 2 22 10 22 18 0 8 -10 16 -22 18
-18 3 -23 -2 -23 -18z"/>
<path d="M3100 924 c0 -21 4 -25 23 -22 14 2 23 11 25 26 3 18 -1 22 -22 22
-21 0 -26 -5 -26 -26z"/>
<path d="M1960 1400 c0 -33 3 -40 20 -40 13 0 22 9 26 25 8 34 -1 55 -26 55
-17 0 -20 -6 -20 -40z"/>
<path d="M4276 1232 c5 -5 84 -64 177 -131 155 -114 179 -135 215 -187 7 -11
5 -4 -4 15 -9 19 -28 45 -42 58 -37 34 -338 253 -348 253 -4 0 -4 -4 2 -8z"/>
<path d="M1523 1109 c-35 -22 -46 -37 -15 -20 22 13 58 40 52 41 -3 0 -20 -10
-37 -21z"/>
<path d="M1454 1058 l-19 -23 23 19 c21 18 27 26 19 26 -2 0 -12 -10 -23 -22z"/>
<path d="M1412 1003 c-26 -38 -34 -53 -29 -53 2 0 16 18 31 40 29 45 28 56 -2
13z"/>
<path d="M4680 884 c0 -6 7 -19 16 -30 14 -18 14 -18 3 6 -14 31 -19 36 -19
24z"/>
<path d="M5651 888 c-1 -13 77 -199 119 -283 65 -131 45 -64 -28 94 -38 80
-73 157 -79 171 -7 14 -12 22 -12 18z"/>
<path d="M5336 718 c34 -68 126 -228 131 -228 3 0 -8 24 -25 53 -16 28 -48 87
-71 130 -42 75 -68 109 -35 45z"/>
<path d="M4826 613 c60 -109 119 -196 155 -228 30 -27 29 -26 -7 16 -21 26
-70 99 -108 163 -76 127 -100 156 -40 49z"/>
<path d="M876 635 c-9 -26 -7 -32 5 -12 6 10 9 21 6 23 -2 3 -7 -2 -11 -11z"/>
<path d="M861 584 c0 -11 3 -14 6 -6 3 7 2 16 -1 19 -3 4 -6 -2 -5 -13z"/>
<path d="M851 544 c0 -11 3 -14 6 -6 3 7 2 16 -1 19 -3 4 -6 -2 -5 -13z"/>
<path d="M841 504 c0 -11 3 -14 6 -6 3 7 2 16 -1 19 -3 4 -6 -2 -5 -13z"/>
<path d="M5480 460 c6 -11 13 -20 16 -20 2 0 0 9 -6 20 -6 11 -13 20 -16 20
-2 0 0 -9 6 -20z"/>
<path d="M831 454 c0 -11 3 -14 6 -6 3 7 2 16 -1 19 -3 4 -6 -2 -5 -13z"/>
<path d="M821 404 c0 -11 3 -14 6 -6 3 7 2 16 -1 19 -3 4 -6 -2 -5 -13z"/>
</g>
</svg>
